Coordinates
version=1
nRows=8
nColumns=36
inDegrees=yes

Units are S.I. units (second, meters, Newtons, ...)
If the header above contains a line with 'inDegrees', this indicates whether rotational values are in degrees (yes) or radians (no).

endheader
time	pelvis_tilt	pelvis_list	pelvis_rotation	pelvis_tx	pelvis_ty	pelvis_tz	hip_flexion_r	hip_adduction_r	hip_rotation_r	knee_angle_r	knee_angle_r_beta	ankle_angle_r	subtalar_angle_r	mtp_angle_r	hip_flexion_l	hip_adduction_l	hip_rotation_l	knee_angle_l	knee_angle_l_beta	ankle_angle_l	subtalar_angle_l	mtp_angle_l	lumbar_extension	lumbar_bending	lumbar_rotation	arm_flex_r	arm_add_r	arm_rot_r	elbow_flex_r	pro_sup_r	arm_flex_l	arm_add_l	arm_rot_l	elbow_flex_l	pro_sup_l
      7.31666670	    -27.72867737	     -0.81878145	     -1.85031551	      0.51896044	      0.45114142	      0.11223138	    111.01502683	    -20.73798389	     11.25058803	    118.20203866	      2.06301476	     31.35712887	    -15.91823968	     -7.49999987	    117.29995775	    -22.88627473	     12.22020198	    119.63541164	      2.08803184	     26.25487070	     -8.25813814	     -7.49999987	    -33.54236061	      1.45936963	     -1.39670966	     96.42040027	      8.69361408	     68.97670016	    130.12192596	     88.07963076	     96.82921432	     11.40118840	     79.32933960	    121.95437225	     81.82287708
      7.33333330	    -27.69989570	     -0.72094045	     -1.76237307	      0.52240466	      0.45357702	      0.11012548	    111.22327755	    -20.95203283	     11.54486860	    118.30973038	      2.06489433	     31.97642657	    -14.96741867	     -7.49999987	    117.56044529	    -22.61294093	     12.21708269	    119.86736208	      2.09208013	     25.76845496	     -8.61048053	     -7.49999987	    -33.70472320	      1.48714274	     -1.48745969	     96.65937744	      8.52243951	     68.90343096	    130.31737340	     88.01680430	     97.21108899	     11.46034012	     79.43838052	    121.69512582	     81.84165061
      7.35000000	    -27.59990908	     -0.63590142	     -1.70385044	      0.52181192	      0.45390129	      0.10962493	    111.14560084	    -21.13275958	     11.59473101	    118.20463649	      2.06306010	     32.40783791	    -14.31049627	     -7.49999987	    117.47049202	    -22.47425927	     12.06365413	    119.72723674	      2.08963449	     25.19927497	     -9.55519645	     -7.49999987	    -33.87874398	      1.50158155	     -1.46470745	     96.81355678	      8.29938009	     68.90196384	    130.54051322	     82.51052470	     97.61175531	     11.85173850	     79.85220065	    121.24784422	     77.64793779
      7.36666670	    -27.52007361	     -0.66742479	     -1.59204860	      0.52066063	      0.45338397	      0.11001303	    111.25340768	    -21.23682944	     11.53598088	    118.22154297	      2.06335517	     31.99899605	    -14.61135592	     -7.49999987	    117.08284386	    -22.44790701	     11.92927941	    119.36550864	      2.08332114	     25.50554155	     -9.46832061	     -7.49999987	    -33.79697847	      1.67474615	     -1.35528064	     96.99269689	      8.16318050	     68.15046785	    130.41641699	     86.55583417	     97.59912395	     12.16148986	     80.01241193	    121.03519880	     81.42689818
      7.38333330	    -27.40956265	     -0.60957427	     -1.54046846	      0.52071627	      0.45840125	      0.10978951	    110.97320194	    -21.36378048	     11.33452104	    117.95505353	      2.05870405	     31.42815857	    -15.13164508	     -7.49999987	    116.80612466	    -22.43914618	     11.55055108	    119.14635460	      2.07949618	     24.75261585	    -10.59447441	     -7.49999987	    -33.78617948	      1.66378559	     -1.30243370	     96.87207442	      8.44575296	     68.33615749	    130.10308651	     86.68753301	     97.60015269	     12.39079509	     80.69282604	    120.84725117	     81.14827719
      7.40000000	    -27.17966154	     -0.71952742	     -1.56787200	      0.51305253	      0.45963382	      0.10852794	    110.77675823	    -21.38223890	     10.95558156	    117.44476508	      2.04979784	     30.62006467	    -15.66333690	     -7.49999987	    116.45374564	    -22.24771756	     11.36812458	    118.50941486	      2.06837948	     24.90526728	    -10.54287984	     -7.49999987	    -34.03514680	      1.81945077	     -1.14355451	     97.25602883	      8.32869968	     67.50340456	    129.95153909	     86.63376759	     98.86974793	     12.53290187	     80.43921712	    120.54936036	     81.03589289
      7.41666670	    -27.26897889	     -0.91202586	     -1.76836771	      0.50977451	      0.46674295	      0.11105750	    110.32772284	    -21.07847057	     10.01656462	    116.33701954	      2.03046403	     30.65898662	    -15.09251929	     -7.49999987	    116.04060352	    -22.27228619	     11.34901281	    117.51088263	      2.05095181	     24.59984751	    -10.25843654	     -7.49999987	    -34.10758422	      1.86594553	     -0.67789716	     97.57965696	      8.20903458	     66.70372586	    129.81308255	     86.51872426	     99.65738151	     12.57725675	     80.28086777	    120.72355124	     80.88759102
      7.43333330	    -27.50732216	     -0.90077364	     -1.91527712	      0.50672764	      0.47214891	      0.10849250	    110.05881851	    -20.83848748	      9.32197078	    115.26103448	      2.01168455	     30.41031487	    -14.87063719	     -7.49999987	    115.60260111	    -22.50998677	     10.78427508	    116.37890154	      2.03119501	     24.58187450	    -10.08418295	     -7.49999987	    -33.66235758	      1.89133465	     -0.85451132	     97.86704188	      8.19952603	     66.63729416	    129.71630758	     86.51033128	    100.18318405	     12.33979566	     79.95623394	    120.50568108	     80.84167409
